# xmcd
#
# Track frame offsets: 
#        150
#        12545
#        27572
#        40125
#        54612
#        65185
#        78150
#        90145
#        102757
#        115255
#        126485
#        137765
#        149707
#        165887
#        180222
#        191815
#        203495
#        219797
#
# Disc length: 3087 seconds
#
# Revision: 0
# Processed by: cddbd v1.5.1PL2 Copyright (c) Steve Scherf et al.
# Submitted via: ExactAudioCopy v0.95b3
#
DISCID=f60c0d12
DTITLE=Lonnie Dean and Will Taylor - Texas Honky Tonk Shuffles
DYEAR=2005
DGENRE=Country
TTITLE0=Amber Amnesia
TTITLE1=One Wish To Burn
TTITLE2=I Want To Hear It From You
TTITLE3=Under Your Spell Again
TTITLE4=After Effects Of Loving You
TTITLE5=Invitation To The Blues
TTITLE6=I've Just Destroyed The World
TTITLE7=One More Time
TTITLE8=To Much Love Is Spoiling You
TTITLE9=The Same Old Me
TTITLE10=Who'll Be The First
TTITLE11=I've Got A New Heartache
TTITLE12=Tennessee Flat - Top Open Hole Guitar
TTITLE13=She Needs Romance
TTITLE14=Montana Bar
TTITLE15=Bubbles In My Beer
TTITLE16=Losing You Got The Best Of Me
TTITLE17=Oh. I Like That!
EXTD=
EXTT0=
EXTT1=
EXTT2=
EXTT3=
EXTT4=
EXTT5=
EXTT6=
EXTT7=
EXTT8=
EXTT9=
EXTT10=
EXTT11=
EXTT12=
EXTT13=
EXTT14=
EXTT15=
EXTT16=
EXTT17=
PLAYORDER=
